<svg width="125" height="29" viewBox="0 0 125 29" fill="none" xmlns="http://www.w3.org/2000/svg">
<path d="M31.2 23.5476L39.1238 5.76985H43.1866L51.1371 23.5476H46.819L40.318 7.85238H41.9428L35.4152 23.5476H31.2ZM35.1618 19.7381L36.2533 16.6143H45.3961L46.5142 19.7381H35.1618ZM52.9809 23.5476V5.76985H60.6761C62.2685 5.76985 63.6399 6.03227 64.7904 6.55714C65.9409 7.06509 66.8304 7.80158 67.4571 8.76667C68.0838 9.73175 68.3961 10.8831 68.3961 12.2206C68.3961 13.5413 68.0838 14.6841 67.4571 15.6492C66.8304 16.5974 65.9409 17.3254 64.7904 17.8333C63.6399 18.3413 62.2685 18.5952 60.6761 18.5952H55.2666L57.0952 16.7921V23.5476H52.9809ZM64.2818 23.5476L59.838 17.0968H64.2323L68.7276 23.5476H64.2818ZM57.0952 17.2492L55.2666 15.3191H60.4476C61.718 15.3191 62.6647 15.0482 63.2914 14.5063C63.918 13.9476 64.2323 13.1857 64.2323 12.2206C64.2323 11.2386 63.918 10.4767 63.2914 9.93492C62.6647 9.39313 61.718 9.12223 60.4476 9.12223H55.2666L57.0952 7.16667V17.2492ZM69.32 23.5476L77.2438 5.76985H81.3066L89.2571 23.5476H84.939L78.438 7.85238H80.0628L73.5352 23.5476H69.32ZM73.2818 19.7381L74.3733 16.6143H83.5161L84.6342 19.7381H73.2818ZM99.4361 23.8524C98.0323 23.8524 96.7371 23.6322 95.5504 23.192C94.3828 22.7349 93.358 22.0916 92.478 21.2619C91.6152 20.4322 90.9371 19.4587 90.4457 18.3413C89.9733 17.2238 89.7352 15.9963 89.7352 14.6587C89.7352 13.3212 89.9733 12.0937 90.4457 10.9762C90.9371 9.85873 91.6228 8.88518 92.5028 8.05556C93.3847 7.22593 94.4171 6.59101 95.6019 6.1508C96.7866 5.69366 98.0914 5.46509 99.5123 5.46509C101.088 5.46509 102.501 5.72751 103.754 6.25238C105.025 6.77726 106.091 7.53916 106.954 8.5381L104.312 10.9762C103.67 10.2989 102.968 9.79947 102.206 9.47777C101.444 9.13916 100.613 8.96985 99.7161 8.96985C98.8533 8.96985 98.0647 9.1053 97.3542 9.37619C96.6437 9.64709 96.0247 10.0365 95.5009 10.5444C94.9923 11.0524 94.5942 11.6535 94.3066 12.3476C94.0361 13.0418 93.9009 13.8122 93.9009 14.6587C93.9009 15.4884 94.0361 16.2503 94.3066 16.9444C94.5942 17.6386 94.9923 18.2482 95.5009 18.773C96.0247 19.281 96.6342 19.6703 97.3295 19.9413C98.0399 20.2122 98.819 20.3476 99.6647 20.3476C100.478 20.3476 101.265 20.2206 102.027 19.9667C102.806 19.6958 103.56 19.2471 104.288 18.6206L106.625 21.592C105.659 22.3202 104.533 22.8789 103.246 23.2682C101.977 23.6577 100.707 23.8524 99.4361 23.8524ZM102.865 21.0587V14.3794H106.625V21.592L102.865 21.0587ZM114.23 12.9318H122.789V16.1318H114.23V12.9318ZM114.535 20.2461H124.211V23.5476H110.446V5.76985H123.882V9.07143H114.535V20.2461Z" fill="white"/>
<path d="M13.9926 0.5C6.26476 0.5 0 6.76474 0 14.4926V28.5H13.9998C18.2286 28.5 22.0171 26.6261 24.5848 23.6636C25.5638 22.5347 26.3638 21.2474 26.9428 19.8455C27.0819 19.5123 27.2057 19.1727 27.3181 18.8272C27.7105 17.6181 27.9428 16.337 27.9905 15.0091C27.9962 14.8404 28 14.6701 28 14.4997V13.9909H23.1638H18.8362C16.1657 13.9909 14.0002 16.1562 14.0002 18.8272H22.0762C21.8857 19.1813 21.6724 19.521 21.4381 19.8455C19.7733 22.1562 17.0591 23.6636 13.9998 23.6636H4.83638V14.4926C4.83638 9.43581 8.93581 5.33634 13.9926 5.33634H23.1714C25.8381 5.33634 28 3.17419 28 0.50707V0.5H13.9926Z" fill="#59A2DD"/>
<path d="M18.6629 8.65553C17.7867 9.53035 17.2457 10.7394 17.2457 12.0754H23.1638C24.4991 12.0754 25.7086 11.5342 26.5829 10.6588C27.4591 9.78402 28 8.57494 28 7.23901H22.0819C20.7467 7.23901 19.5372 7.78014 18.6629 8.65553Z" fill="white"/>
</svg>
