<?xml version="1.0" encoding="UTF-8"?>
<svg width="157px" height="48px" viewBox="0 0 157 48" version="1.1" xmlns="http://www.w3.org/2000/svg" xmlns:xlink="http://www.w3.org/1999/xlink">
    <!-- Generator: Sketch 59.1 (86144) - https://sketch.com -->
    <title>PANKHURI LOG</title>
    <desc>Created with Sketch.</desc>
    <g id="Symbols" stroke="none" stroke-width="1" fill="none" fill-rule="evenodd">
        <g id="foot-big" transform="translate(-251.000000, -63.000000)" fill="#FFFFFF">
            <g id="PANKHURI-LOG" transform="translate(251.000000, 63.000000)">
                <path d="M117.676785,26.4497665 C117.67936,26.847702 117.6773,25.5341536 117.676785,26.4497665" id="Fill-1"></path>
                <path d="M111.484381,27.8709677 C111.479746,28.959373 111.486956,30.7295745 111.484381,27.8709677" id="Fill-3"></path>
                <path d="M151.744304,0.357768501 C150.039256,0.622360531 148.539142,2.29598482 148.800091,4.31435294 C148.974512,5.66099431 149.69178,6.63465655 150.899066,7.19617457 C152.120926,7.76406831 153.322292,7.61287287 154.439408,6.84869829 C155.341116,6.23162049 155.763734,5.32125996 156.007378,4.30023529 L156.007378,3.4891537 C155.982786,3.44771157 155.94362,3.40945731 155.934968,3.36528273 C155.538763,1.30228463 153.819598,0.0362504744 151.744304,0.357768501" id="Fill-5"></path>
                <path d="M42.8157935,32.992671 C41.3561806,34.4935742 39.4516645,35.0251871 37.2199226,35.0587355 C34.413729,34.9524129 31.8924387,33.9619613 30.3115355,31.2760258 C28.3228903,27.8974452 29.037729,21.7823484 33.2761806,19.4876387 C37.2710194,17.3250581 43.3613419,18.632929 44.8916645,23.8644129 C45.8795355,27.2383484 45.341729,30.3949935 42.8157935,32.992671 M14.9107613,35.1139613 C14.9107613,35.1139613 5.83101935,30.2401548 5.83101935,24.2824774 C5.83101935,21.8143484 7.83205161,19.8133161 10.2996645,19.8133161 C12.7172129,19.8133161 14.6846968,21.7333161 14.7646968,24.1307355 L14.8441806,24.0946065 C14.9427613,21.7131871 16.9035355,19.8133161 19.3086968,19.8133161 C21.7763097,19.8133161 23.7773419,21.8143484 23.7773419,24.2824774 C23.7773419,29.8365419 14.9107613,35.1139613 14.9107613,35.1139613 M141.433084,13.3054452 C139.667406,13.9826065 138.333729,15.184671 137.146116,16.6571871 L137.146116,13.0220903 L136.858116,13.0220903 L136.858116,13.0205419 L130.224826,13.0205419 L130.224826,13.688929 C130.224826,17.8448 130.24031,22.0017032 130.213987,26.1580903 C130.207794,27.1862194 130.148439,28.2282839 129.971923,29.2393806 C129.459406,32.1756387 127.843923,34.4078968 124.926761,34.7593806 C122.223277,35.0845419 119.484181,34.1751226 118.234116,31.2822194 C117.894503,30.4971871 117.667406,29.6878968 117.552826,28.856929 C117.518245,28.6097032 117.487277,28.4223484 117.466116,28.2587355 C117.466116,27.5454452 117.466116,27.1015742 117.466632,26.840929 C117.4656,26.6592516 117.464052,26.1214452 117.460955,24.8440258 C117.45889,23.8494452 117.445987,22.8491871 117.341729,21.8623484 C117.063019,19.2295742 116.073084,16.9111226 114.09889,15.0907355 C112.206761,13.3457032 109.9136,12.5400258 107.377342,12.4104774 C104.691923,12.2731871 102.110245,12.6587355 99.8176,14.1911226 C99.1930839,14.6091871 98.6299871,15.1186065 97.9760516,15.6352516 L97.9760516,4.84196129 C97.9837935,4.82750968 97.9992774,4.8048 97.9961806,4.8011871 L97.9760516,4.8011871 L97.9760516,4.74286452 L91.3314065,4.74286452 L91.3314065,4.7764129 C91.2441806,4.77589677 91.1543742,4.77538065 91.0717935,4.77434839 C90.6351484,4.77073548 90.3419871,4.9008 90.0410839,5.2244129 C86.7946323,8.71705806 74.3115355,20.3872516 71.0496,23.8654452 C70.9572129,23.9645419 70.8452129,24.0450581 70.6552774,24.2076387 L70.6552774,23.9893161 C70.6552774,23.8515097 70.6526968,23.7137032 70.6506323,23.5764129 C70.6496,22.6164129 70.6490839,22.3397677 70.6490839,23.4277677 C70.6191484,21.9893161 70.4741161,20.5627355 70.0235355,19.176929 C69.0707613,16.2442839 67.2581161,14.1193806 64.309471,13.0437677 C62.2805677,12.3036387 60.1964387,12.2881548 58.0859871,12.5121548 C55.829471,12.7521548 53.7763097,13.4850581 52.0240516,14.9622194 C51.9265032,15.0453161 51.8310194,15.1330581 51.733471,15.224929 L51.733471,13.0215742 L45.1378581,13.0215742 L45.1378581,15.7374452 C43.9884387,14.416671 42.7373419,13.5722839 41.253471,13.0824774 C38.6083097,12.208671 35.9125677,12.1389935 33.2240516,12.7681548 C30.3146323,13.4499613 27.941471,14.8316387 26.1463742,16.9338323 C26.0679226,16.832671 25.9961806,16.7284129 25.9141161,16.6293161 C21.877471,11.7322839 14.4772129,10.992671 9.48314839,13.6053161 C8.49837419,14.120929 7.61114839,14.8233806 6.63514839,15.4680258 L6.63514839,12.7774452 L0.000309677419,12.7774452 L0.000309677419,48.0001548 L6.66663226,48.0001548 L6.66663226,38.5916387 C7.01243871,38.8223484 7.27153548,39.0210581 7.55282581,39.1795097 C10.8865032,41.0597677 14.4756645,41.3823484 18.1009548,40.5080258 C21.2292129,39.7534452 23.7252129,38.2871226 25.5822452,36.1565419 C26.6253419,37.4334452 27.9461161,38.5198968 29.557471,39.3983484 C31.2865032,40.3408 33.1523097,40.8512516 35.1115355,41.0577032 C38.0065032,41.3627355 40.757471,40.992671 43.2405677,39.368929 C43.8852129,38.9477677 44.4720516,38.4393806 45.1626323,37.9118968 L45.1626323,40.5162839 L51.733471,40.5162839 L51.733471,23.3565419 C52.6423742,20.5457032 54.9990194,18.5477677 58.2103742,18.7253161 C60.5917935,18.856929 62.4044387,19.8979613 63.2772129,22.1844129 C63.6323097,23.1139613 63.8903742,24.1431226 63.9058581,25.1315097 C63.981729,30.0151226 63.9610839,34.9008 63.9745032,39.7859613 C63.9750194,40.0300903 63.9745032,40.2731871 63.9745032,40.5395097 L70.6594065,40.5395097 L70.6594065,39.9671226 C70.6594065,36.6633806 70.6619871,33.4814452 70.6650839,32.6860903 C70.6656,32.488929 70.6836645,32.2262194 70.8049548,32.1059613 C71.8490839,31.0742194 72.9185032,30.0682839 73.989471,29.0463484 C74.037471,29.1093161 74.1453419,29.240929 74.2434065,29.3802839 C76.7806968,32.9694452 79.3200516,36.5565419 81.8449548,40.1544774 C82.053471,40.4522839 82.2588903,40.5751226 82.6315355,40.5725419 C85.005729,40.552929 87.381471,40.5632516 89.7561806,40.5617032 C89.917729,40.5611871 90.0792774,40.5457032 90.3357935,40.5317677 C86.3652129,35.1568 82.4519226,29.8587355 78.4983742,24.5064774 C78.6232774,24.6303484 85.7329548,17.5438968 91.3314065,11.8355097 L91.3314065,40.5240258 L97.9791484,40.5240258 C97.9791484,39.184671 97.9739871,37.8835097 97.9801806,36.5818323 C97.9972129,32.8471226 97.9760516,29.1108645 98.0581161,25.3771871 C98.0963097,23.6233806 98.6583742,21.9851871 99.8645677,20.6561548 C101.299406,19.0752516 103.166761,18.5890581 105.225084,18.7361548 C107.717987,18.9147355 109.526503,20.2814452 110.216052,22.6917677 C110.568052,23.9232516 110.753342,25.2404129 110.772439,26.5224774 C110.783794,27.3152516 110.792568,27.7472516 110.798245,27.9537032 L110.798245,27.9562839 L110.789471,27.9562839 C110.779665,28.1276387 110.765213,28.2602839 110.765213,28.392929 C110.766245,28.7568 110.766245,29.0618323 110.766761,29.3152516 C110.77089,28.6442839 110.783277,28.3377032 110.819406,30.8651871 C110.855019,33.4484129 111.813987,35.7617032 113.600826,37.6584774 C115.975019,40.1777032 118.981987,41.1681548 122.381729,41.1521548 C124.589213,41.1413161 126.673858,40.7088 128.492181,39.3875097 C129.082632,38.9586065 129.611148,38.4450581 130.22431,37.9222194 L130.22431,40.5348645 L130.5216,40.5348645 L130.5216,40.5358968 L137.157471,40.5358968 L137.157471,40.0362839 C137.162632,36.6081548 137.141471,33.1789935 137.182761,29.7513806 C137.204439,28.0053161 137.505342,26.2938323 138.184052,24.6680258 C139.310245,21.9712516 141.23489,20.1761548 144.114374,19.5103484 C145.017084,19.3018323 145.948181,19.2187355 146.881342,19.0762839 L146.881342,12.5297032 C144.990245,12.4791226 143.180181,12.6365419 141.433084,13.3054452" id="Fill-8"></path>
                <polygon id="Fill-11" points="147.096774 40.2580645 154.83871 40.2580645 154.83871 12.3870968 147.096774 12.3870968"></polygon>
                <path d="M117.676785,26.4497665 C117.67936,26.847702 117.6773,25.5341536 117.676785,26.4497665" id="Fill-25"></path>
                <path d="M111.484381,27.8709677 C111.479746,28.959373 111.486956,30.7295745 111.484381,27.8709677" id="Fill-26"></path>
                <path d="M151.826552,0.0531988961 C150.002529,0.33647503 148.39774,2.1282819 148.676897,4.2891766 C148.863489,5.73091073 149.630807,6.77332789 150.922336,7.37449738 C152.229455,7.9824928 153.51465,7.82062072 154.709717,7.00248415 C155.674344,6.34183155 156.126452,5.36718612 156.387097,4.27406204 L156.387097,3.40570611 C156.360789,3.36133756 156.318891,3.32038198 156.309634,3.27308803 C155.885783,1.06441181 154.046657,-0.291023049 151.826552,0.0531988961" id="Fill-27"></path>
                <path d="M98.1196508,4.64516129 L98.1196508,4.70361539 L98.1398094,4.70361539 C98.1429107,4.70723644 98.1274041,4.72999733 98.1196508,4.74448154 L98.1196508,4.74448154 L98.1196508,15.5621115 C98.7745468,15.0443013 99.3384706,14.5337332 99.963904,14.1147259 C102.259917,12.5788831 104.845386,12.1924653 107.53475,12.3300652 C110.074733,12.4599058 112.371263,13.2674 114.266171,15.0163675 C116.243264,16.8408597 117.234654,19.1645396 117.513773,21.8032509 C117.618184,22.792315 117.631106,23.7948287 117.633174,24.7916522 C117.635694,25.831896 117.63719,26.3827786 117.638217,26.6504558 L117.638343,28.2140623 C117.659535,28.3780441 117.690548,28.5658215 117.72518,28.8136048 C117.839929,29.6464464 118.067359,30.4575618 118.407471,31.2443643 C119.659371,34.1437913 122.402491,35.0552614 125.109946,34.7293669 C128.031392,34.3770904 129.649249,32.1397984 130.162518,29.1969189 C130.339293,28.183542 130.398735,27.1391276 130.404938,26.10868 C130.431299,21.94292 130.415793,17.7766426 130.415793,13.6113998 L130.415793,13.6113998 L130.415793,12.9415055 L137.058826,12.9415055 L137.058826,12.9430574 L137.347249,12.9430574 L137.347249,16.5863515 C138.536606,15.1105148 139.872243,13.9057395 141.640514,13.2270512 C143.390177,12.5566395 145.2029,12.3988652 147.096774,12.4495599 L147.096774,12.4495599 L147.096774,19.0109036 C146.162242,19.1536764 145.229778,19.2369606 144.325742,19.4459469 C141.442029,20.1132548 139.514557,21.9123997 138.386709,24.6152553 C137.707003,26.2447281 137.405657,27.9600715 137.383948,29.7100735 C137.342597,33.1454159 137.363789,36.5823102 137.358621,40.0181699 L137.358621,40.5189095 L130.713003,40.5189095 L130.713003,40.5178749 L130.415276,40.5178749 L130.415276,37.899338 C129.801214,38.4233558 129.271921,38.9380623 128.680603,39.3679327 C126.859609,40.6922026 124.771902,41.1256941 122.561176,41.1365573 C119.15644,41.1525933 116.145056,40.1599082 113.767375,37.6350013 C111.977912,35.7339498 111.017535,33.4154428 110.98187,30.8263916 C110.947816,28.4422189 110.934825,28.574159 110.929966,29.1585828 L110.929,29.1961613 L110.928887,29.114301 C110.928664,28.9493176 110.928515,28.7651903 110.928106,28.5603547 L110.927597,28.3485585 C110.927597,28.2156142 110.94207,28.0826699 110.951891,27.9109286 L110.951891,27.9109286 L110.960678,27.9109286 C110.954992,27.701425 110.946205,27.2684508 110.934833,26.4738888 C110.915709,25.1889332 110.730146,23.8688016 110.377629,22.6345406 C109.687068,20.2187826 107.875895,18.8489909 105.379331,18.6700075 C103.317985,18.522579 101.447887,19.009869 100.010941,20.5943373 C98.8029755,21.9263666 98.2400855,23.5682544 98.2018358,25.3260158 C98.1196508,29.0681129 98.1408431,32.8127965 98.1237859,36.5559283 C98.1175832,37.8605411 98.1227521,39.1646366 98.1227521,40.5070117 L98.1227521,40.5070117 L91.4652458,40.5070117 L91.4652458,11.7538009 C85.8585711,17.4750608 78.7384508,24.5774929 78.6133641,24.4533426 C82.5727196,29.8176704 86.4917578,35.1276824 90.4681705,40.5147711 C90.2112776,40.528738 90.0494919,40.5442568 89.8877063,40.5447741 C87.5095086,40.546326 85.1302771,40.5359801 82.7525963,40.5556373 C82.3794038,40.5582237 82.1736827,40.435108 81.9648603,40.13663 C79.4362484,36.5305809 76.8931637,32.935395 74.3521466,29.3381398 C74.253938,29.1984708 74.1459086,29.0665611 74.0978381,29.0034513 C73.0252973,30.0276913 71.9543072,31.0358953 70.9086445,32.0699639 C70.787176,32.1904931 70.769085,32.4537952 70.7685681,32.6514011 C70.7657769,33.3688347 70.7634044,36.023758 70.7629578,38.9614273 L70.7628823,40.5225305 L64.0681602,40.5225305 L64.0681602,40.5225305 L64.0681602,39.7672828 C64.0547211,34.8711051 64.0753966,29.9744102 63.9994142,25.0797844 C63.9839076,24.0891684 63.725464,23.0576862 63.3698457,22.1260417 C62.4957895,19.8344339 60.6804819,18.7910541 58.2955647,18.6591444 C55.0794929,18.4811956 52.7193863,20.4836366 51.809148,23.3008139 L51.809148,23.3008139 L51.809148,40.4992524 L45.2286579,40.4992524 L45.2286579,37.8889922 C44.537063,38.4176656 43.9493623,38.9271991 43.3037703,39.3493101 C40.8170263,40.9767137 38.0620178,41.3476128 35.1627979,41.0418926 C33.2006944,40.8349755 31.3321474,40.3233727 29.6005755,39.3787958 C27.9868538,38.4983633 26.6641397,37.4094616 25.6195108,36.1296789 C23.7597509,38.2650641 21.2600847,39.7346934 18.1272318,40.4909757 C14.4966165,41.3672699 10.9021834,41.0439618 7.56360942,39.1594636 C7.28190594,39.0006547 7.02242859,38.8014969 6.67611421,38.570267 L6.67611421,38.570267 L6.67611421,48 L0,48 L0,12.6978605 L6.6445841,12.6978605 L6.6445841,15.3945086 C7.62201767,14.7484097 8.51054665,14.044374 9.4967673,13.5275984 C14.4981672,10.9090615 21.9092949,11.6503423 25.9518692,16.5584177 C26.0340542,16.657738 26.1059016,16.7622311 26.1844684,16.8636206 C27.9822019,14.7566864 30.3588489,13.3718932 33.2725417,12.6885492 C35.9650067,12.0579691 38.6647082,12.1278037 41.3137548,13.0035806 C42.7998053,13.4944916 44.0527397,14.3407829 45.2038474,15.6645355 L45.2038474,15.6645355 L45.2038474,12.9425401 L51.809148,12.9425401 L51.809148,15.1508636 C51.9068397,15.0587855 52.0024638,14.9708457 52.1001555,14.8875615 C53.8549873,13.4070691 55.9111643,12.6725132 58.1709949,12.4319719 C60.2845464,12.2074668 62.3717366,12.2229856 64.4036199,12.9647837 C67.3565961,14.0428222 69.1719037,16.1725172 70.1260774,19.1117757 C70.5773199,20.5007072 70.7225651,21.9305049 70.7525446,23.3722004 L70.752,23.3571613 L70.752,22.6921613 L70.7530309,22.7070765 C70.7532624,22.797981 70.7535767,23.0465399 70.7539737,23.4090521 L70.7540953,23.5211807 C70.7561628,23.6587806 70.7587472,23.7968979 70.7587472,23.9350151 L70.7587472,23.9350151 L70.7587472,24.15383 C70.9489617,23.9908827 71.0611262,23.910185 71.153649,23.8108648 C74.4203757,20.3248276 86.9218079,8.62831694 90.173028,5.1277956 C90.4743732,4.80345293 90.7679651,4.67309511 91.2052516,4.67671616 C91.2879535,4.67775075 91.3778919,4.67826804 91.4652458,4.67878533 L91.4652458,4.67878533 L91.4652458,4.64516129 L98.1196508,4.64516129 Z M19.3367477,19.7495979 C16.9280536,19.7495979 14.9643994,21.6537532 14.865674,24.0405428 L14.865674,24.0405428 L14.7860733,24.0767533 C14.7059558,21.6739276 12.7355821,19.7495979 10.3144827,19.7495979 C7.84324536,19.7495979 5.83927395,21.7551426 5.83927395,24.2288375 C5.83927395,30.1999499 14.9323524,35.0847471 14.9323524,35.0847471 C14.9323524,35.0847471 23.8119565,29.7954268 23.8119565,24.2288375 C23.8119565,21.7551426 21.807985,19.7495979 19.3367477,19.7495979 Z M44.9572922,23.8098302 C43.4247219,18.5665489 37.3254537,17.2557286 33.3247473,19.423186 C29.0800701,21.7230705 28.3641814,27.8519572 30.3557476,31.2381568 C31.9389729,33.9301493 34.4639665,34.9228344 37.2742818,35.0293968 C39.5093018,34.9957727 41.4166153,34.462961 42.8783722,32.9586731 C45.4080178,30.3551378 45.9466142,27.1913741 44.9572922,23.8098302 Z" id="Combined-Shape"></path>
                <polygon id="Fill-29" points="147.096774 40.2580645 154.83871 40.2580645 154.83871 12.3870968 147.096774 12.3870968"></polygon>
            </g>
        </g>
    </g>
</svg>